<?xml version="1.0" encoding="utf-8"?>
<!-- Generator: Adobe Illustrator 24.1.0, SVG Export Plug-In . SVG Version: 6.00 Build 0)  -->
<svg version="1.1" id="Layer_1" xmlns="http://www.w3.org/2000/svg" xmlns:xlink="http://www.w3.org/1999/xlink" x="0px" y="0px"
	 viewBox="0 0 326.7 112.62" style="enable-background:new 0 0 326.7 112.62;" xml:space="preserve">
<style type="text/css">
	.st0{fill:#149B9E;}
	.st1{fill:#464342;}
</style>
<g>
	<path class="st0" d="M81.44,45.98c0.13-0.93,0.28-1.85,0.38-2.78c0.5-4.62,0.45-9.23-0.53-13.79c-1.58-7.3-5.2-13.35-11.87-17.28
		c-6.08-3.59-12.7-4.84-19.77-3.69c-7.82,1.27-13.96,5.24-18.85,11.15c-2.52,3.04-4.43,6.44-5.67,10.16
		c-1.76,5.28-2.31,10.66-1.41,16.19c0.84,5.18,2.57,10.03,5.3,14.54c2.22,3.66,5.05,6.85,8.17,9.81c2.3,2.17,4.66,4.34,6.16,7.14
		c0.76,1.43,1.35,3.01,1.63,4.59c0.54,3.09,0.72,6.24,1.2,9.34c0.49,3.18,1.46,6.23,3.73,8.69c3.07,3.32,6.9,4.86,11.51,4.5
		c4.41-0.34,7.54-2.61,9.66-6.23c0.73-1.24,1.02-2.74,1.43-4.15c0.12-0.41-0.04-0.89-0.06-1.24c-0.72,1.34-1.3,2.81-2.21,4.03
		c-2.43,3.26-5.7,4.92-9.93,4.24c-3.47-0.55-6.03-2.38-7.45-5.52c-0.88-1.95-1-4.09-1.06-6.2c-0.07-2.28-0.01-4.57-0.15-6.84
		c-0.23-3.6-1.17-7.04-2.96-10.22c-0.06-0.1-0.1-0.2-0.17-0.29c-1.71-2.1-3.37-4.24-5.15-6.27c-2.1-2.4-4.32-4.68-6.07-7.36
		c-2.14-3.28-3.64-6.8-4.64-10.56c-0.92-3.44-1.19-6.95-0.75-10.42c0.84-6.56,3.73-12.21,8.74-16.74c2.31-2.09,4.92-3.66,7.94-4.68
		c2.84-0.96,5.73-1.53,8.71-1.35c6.07,0.36,11.44,2.36,15.62,6.85c2.38,2.56,4.02,5.54,5.23,8.77c1.39,3.72,2.15,7.58,2.57,11.51
		c0.12,1.16,0.21,2.32,0.33,3.48c0.02,0.22,0.11,0.43,0.16,0.65C81.25,46,81.34,45.99,81.44,45.98"/>
	<path class="st1" d="M38.02,47.53c-0.12,0.01-0.23,0.03-0.35,0.04c-0.15-0.33-0.4-0.64-0.44-0.98c-0.86-6.67,0.91-12.65,5.15-17.79
		c1.38-1.68,3.18-3.14,5.04-4.29c6.12-3.8,11.91-3.46,17.99,0.3c3.81,2.35,7.06,7.02,7.88,11.37c0.46,2.45,0.65,3.61-1.38,4.55
		c-1.84,0.85-3.87,0.51-5.05-1.5c-0.87-1.49-1.38-3.2-2-4.83c-0.6-1.59-1.36-3.23-2.28-4.59c-1.62-2.39-4.8-3.02-7.62-2.92
		c-5.26,0.19-9.09,2.8-12,7.12c-2.59,3.84-4.16,7.99-4.61,12.58C38.32,46.9,38.14,47.21,38.02,47.53"/>
	<path class="st1" d="M70.87,66.57c-1.28-0.52-2.59-0.11-3.42,1.06c-0.09,0.13-0.18,0.26-0.38,0.54c-0.52-0.55-1.06-1.22-1.5-1.8
		c-0.53-0.77-0.9-1.5-1.14-2.4c-0.16-0.78-0.28-1.64-0.37-2.46c-0.01-0.17-0.03-0.34-0.04-0.52h-0.02c-0.07-0.74-0.08-1.42-0.1-1.91
		c-0.33-7.44-0.38-8.21-0.98-12.47c-0.58-4.08-1.27-8.15-3.16-11.88c-0.65-1.28-1.31-2.58-2.38-3.57c-0.09-0.14-0.63-0.37-0.73-0.15
		c-0.09,0.22,0.34,1.59,0.62,2.33c2.06,5.41,2.58,11.07,2.72,16.79c0.09,3.61,0.12,7.22,0.39,10.82h-0.01
		c0.15,4.58,2.91,7.38,6.83,9.58l-0.25-0.71c0.04,0.09,0.08,0.18,0.1,0.26c0.4,1.23,1.57,2.1,2.83,2.03
		c1.37-0.07,2.52-1.05,2.75-2.33C72.86,68.5,72.11,67.08,70.87,66.57"/>
	<path class="st0" d="M79.15,62.78c2.08,4.93,1.26,9.39-2.16,13.45c1.6,0.14,4.18-2.1,5.06-4.74C83.21,68,81.62,63.93,79.15,62.78"
		/>
	<path class="st0" d="M74.46,75.44c1.36,0.28,3.78-2.17,4.36-4.33c0.84-3.17-1.12-6.6-2.66-6.88C77.96,68.33,77.3,72.06,74.46,75.44
		"/>
	<path class="st0" d="M73.26,65.63c1.38,3.32,0.97,6.28-1.35,8.97c1.46,0.12,3.21-1.69,3.56-3.62
		C75.86,68.86,75.04,66.3,73.26,65.63"/>
	<path class="st1" d="M55.75,73.43c-0.51-3.08-1.4-5.84-2.57-8.73c-1.29-3.17-3.22-5.95-4.28-9.21c-0.68-2.1-1.84-4.83-2.49-7.46
		c-0.2-1.18-0.36-2.37-0.48-3.56c-0.23-2.27-0.3-4.55-0.12-6.86c0.03-0.33,0.02-0.67,0-1.01c-0.02-0.45-0.04-0.91-0.06-1.36
		c-0.12-0.02-0.24-0.04-0.37-0.07c-0.9,1.28-1.17,2.84-1.45,4.37c-0.72,4.01-0.73,8.12,0.26,12.06c0,0,1.3,3.87,2.03,5.39
		c1.59,3.31,3.24,6.6,4.93,9.87c1.45,2.82,2.8,5.67,3.59,8.75c0.37,1.43,0.53,2.91,0.79,4.37c0.02,0.11,0.07,0.22,0.11,0.32
		c0.06,0,0.12,0.01,0.18,0.01c0.11-0.95,0.31-1.91,0.29-2.85C56.09,76.12,55.97,74.76,55.75,73.43"/>
	<path class="st1" d="M95.26,34.35c0-1.74,0.65-2.64,2.56-2.64h18.23c1.91,0,2.52,0.89,2.52,2.64V59.4c0,0.61-0.12,0.73-0.85,0.73
		h-4.38c-0.61,0-0.85-0.2-0.85-0.73V36.99h-11.12V59.4c0,0.61-0.12,0.73-0.85,0.73h-4.43c-0.57,0-0.81-0.2-0.81-0.73V34.35z"/>
	<path class="st1" d="M130.63,33.87c0.61-1.87,1.3-2.19,2.92-2.19h2.44c1.74,0,2.44,0.2,3.08,2.15l8.44,25.53
		c0.08,0.28,0.08,0.77-0.53,0.77h-4.75c-0.57,0-0.93-0.08-1.14-0.65l-1.62-5.32h-9.38c0,0.12-0.12,0.45-0.29,0.93l-1.01,3.33
		c-0.16,0.49-0.28,0.81-0.28,0.93c-0.2,0.53-0.37,0.77-1.14,0.77h-4.67c-0.53,0-0.65-0.37-0.53-0.77L130.63,33.87z M138.06,49.25
		l-1.54-5.28l-1.54-5.93h-0.29l-1.54,5.89l-1.63,5.32H138.06z"/>
	<path class="st1" d="M149.31,57.17c0-1.3,0.49-2.15,1.34-3.16l7.14-8.69l-6.9-7.47c-0.85-0.9-1.01-1.67-1.01-2.44v-1.63
		c0-1.75,0.85-2.19,2.39-2.19h18.02c0.65,0,0.77,0.16,0.77,0.89v3.49c0,0.61-0.2,0.85-0.77,0.85h-12.79v0.32l5.64,6.09
		c0.73,0.77,1.1,1.34,1.1,2.03c0,0.73-0.33,1.34-0.98,2.15l-6.01,7.22l0.08,0.24h13.6c0.61,0,0.77,0.12,0.77,0.89v3.49
		c0,0.61-0.2,0.85-0.77,0.85h-19.45c-1.42,0-2.19-0.45-2.19-1.99V57.17z"/>
	<path class="st1" d="M173.92,57.17c0-1.3,0.49-2.15,1.34-3.16l7.14-8.69l-6.9-7.47c-0.85-0.9-1.01-1.67-1.01-2.44v-1.63
		c0-1.75,0.85-2.19,2.39-2.19h18.02c0.65,0,0.77,0.16,0.77,0.89v3.49c0,0.61-0.2,0.85-0.77,0.85h-12.79v0.32l5.64,6.09
		c0.73,0.77,1.1,1.34,1.1,2.03c0,0.73-0.33,1.34-0.98,2.15l-6.01,7.22l0.08,0.24h13.6c0.61,0,0.77,0.12,0.77,0.89v3.49
		c0,0.61-0.2,0.85-0.77,0.85h-19.45c-1.42,0-2.19-0.45-2.19-1.99V57.17z"/>
	<path class="st1" d="M206.33,33.87c0.61-1.87,1.3-2.19,2.92-2.19h2.44c1.74,0,2.44,0.2,3.08,2.15l8.44,25.53
		c0.08,0.28,0.08,0.77-0.53,0.77h-4.75c-0.57,0-0.93-0.08-1.14-0.65l-1.62-5.32h-9.38c0,0.12-0.12,0.45-0.29,0.93l-1.01,3.33
		c-0.16,0.49-0.28,0.81-0.28,0.93c-0.2,0.53-0.37,0.77-1.14,0.77h-4.67c-0.53,0-0.65-0.37-0.53-0.77L206.33,33.87z M213.76,49.25
		l-1.54-5.28l-1.54-5.93h-0.29l-1.54,5.89l-1.63,5.32H213.76z"/>
	<path class="st1" d="M232.81,33.83c0.61-1.83,1.3-2.15,2.92-2.15h2.44c1.74,0,2.44,0.2,3.08,2.15l8.44,25.53
		c0.12,0.28,0.08,0.77-0.53,0.77h-4.75c-0.57,0-0.93-0.08-1.14-0.65l-6.13-21.39h-0.29l-6.17,21.27c-0.2,0.53-0.37,0.77-1.14,0.77
		h-4.67c-0.53,0-0.65-0.37-0.53-0.77L232.81,33.83z"/>
	<path class="st1" d="M253.4,32.49c0-0.57,0.24-0.81,0.89-0.81h4.34c0.77,0,0.89,0.2,0.89,0.81v10.19h11.12V32.49
		c0-0.57,0.24-0.81,0.85-0.81h4.34c0.77,0,0.89,0.2,0.89,0.81v26.83c0,0.61-0.12,0.81-0.89,0.81h-4.34c-0.61,0-0.85-0.24-0.85-0.81
		V47.83h-11.12v11.49c0,0.61-0.12,0.81-0.89,0.81h-4.34c-0.65,0-0.89-0.24-0.89-0.81V32.49z"/>
	<path class="st1" d="M281.01,57.17c0-1.3,0.49-2.15,1.34-3.16l7.14-8.69l-6.9-7.47c-0.85-0.9-1.01-1.67-1.01-2.44v-1.63
		c0-1.75,0.85-2.19,2.39-2.19H302c0.65,0,0.77,0.16,0.77,0.89v3.49c0,0.61-0.2,0.85-0.77,0.85h-12.79v0.32l5.64,6.09
		c0.73,0.77,1.1,1.34,1.1,2.03c0,0.73-0.33,1.34-0.98,2.15l-6.01,7.22l0.08,0.24h13.6c0.61,0,0.77,0.12,0.77,0.89v3.49
		c0,0.61-0.2,0.85-0.77,0.85h-19.44c-1.42,0-2.19-0.45-2.19-1.99V57.17z"/>
	<path class="st0" d="M105.07,78.72c-0.32,0.11-0.65,0.2-1,0.27c-0.35,0.07-0.62,0.1-0.82,0.1c-0.52,0-0.92-0.15-1.19-0.45
		c-0.27-0.3-0.45-0.84-0.56-1.62c-0.16,0.27-0.36,0.55-0.59,0.83c-0.23,0.28-0.48,0.51-0.73,0.69c-0.29,0.21-0.59,0.36-0.89,0.47
		c-0.3,0.11-0.66,0.16-1.08,0.16c-0.52,0-1.02-0.11-1.49-0.34c-0.48-0.23-0.9-0.56-1.27-0.99c-0.37-0.43-0.66-0.95-0.87-1.55
		c-0.21-0.61-0.32-1.28-0.32-2.01c0-0.67,0.11-1.3,0.34-1.9c0.23-0.6,0.54-1.13,0.95-1.58c0.38-0.43,0.84-0.77,1.38-1.01
		c0.53-0.24,1.09-0.37,1.66-0.37c0.74,0,1.37,0.18,1.89,0.54c0.52,0.36,0.9,0.86,1.14,1.5l0.23-1.79h1.74
		c-0.04,0.44-0.14,1.1-0.29,1.98c-0.15,0.88-0.32,1.84-0.51,2.88c0.02,0.92,0.12,1.68,0.31,2.29c0.19,0.61,0.44,1.01,0.74,1.18
		c0.09,0.06,0.27,0.09,0.53,0.09c0.26,0.01,0.5,0.01,0.71,0.01V78.72z M101.32,74.01c-0.04-0.46-0.12-0.92-0.22-1.39
		c-0.1-0.47-0.25-0.88-0.45-1.25c-0.19-0.37-0.45-0.67-0.75-0.9c-0.31-0.23-0.69-0.34-1.14-0.34c-0.74,0-1.35,0.38-1.83,1.13
		c-0.48,0.75-0.72,1.8-0.72,3.12c0,0.51,0.05,0.98,0.16,1.44c0.11,0.45,0.26,0.84,0.45,1.17c0.21,0.35,0.47,0.63,0.81,0.85
		c0.33,0.22,0.73,0.32,1.19,0.32c0.76,0,1.35-0.34,1.78-1.03C101.02,76.47,101.26,75.42,101.32,74.01"/>
	<path class="st0" d="M115.48,78.62c-0.36,0.14-0.71,0.25-1.05,0.33c-0.34,0.08-0.67,0.12-0.99,0.12c-0.21,0-0.39-0.01-0.55-0.02
		c-0.16-0.01-0.33-0.08-0.5-0.17c-0.16-0.08-0.33-0.23-0.5-0.42c-0.17-0.19-0.34-0.45-0.53-0.78c-0.3-0.54-0.61-1.12-0.94-1.75
		c-0.33-0.63-0.61-1.16-0.86-1.62l-0.92,1.03v3.55h-1.74v-7.26c0-0.21-0.05-0.4-0.14-0.58c-0.09-0.18-0.22-0.32-0.38-0.43
		c-0.12-0.07-0.26-0.13-0.42-0.16c-0.16-0.04-0.34-0.06-0.52-0.07v-0.62l3.07-0.21l0.13,0.13v4.73c0.5-0.62,1.03-1.28,1.58-1.97
		c0.56-0.69,1.07-1.29,1.55-1.82c0.38-0.42,0.7-0.71,0.95-0.87c0.25-0.15,0.53-0.23,0.84-0.23c0.34,0,0.62,0.11,0.82,0.32
		c0.21,0.21,0.31,0.49,0.31,0.85c0,0.26-0.1,0.49-0.3,0.7c-0.2,0.2-0.45,0.3-0.77,0.3c-0.18,0-0.39-0.04-0.65-0.12
		c-0.26-0.08-0.49-0.17-0.7-0.27c-0.26,0.18-0.51,0.41-0.74,0.7c-0.23,0.29-0.51,0.6-0.83,0.96c0.45,0.83,0.85,1.55,1.18,2.15
		c0.33,0.6,0.65,1.15,0.95,1.62c0.29,0.45,0.58,0.79,0.87,1.01c0.29,0.22,0.59,0.33,0.91,0.33c0.12,0,0.28-0.01,0.47-0.03
		c0.19-0.02,0.31-0.03,0.38-0.05V78.62z"/>
	<path class="st0" d="M124.96,74.2c0,0.65-0.1,1.28-0.31,1.91c-0.21,0.63-0.5,1.16-0.88,1.59c-0.43,0.5-0.93,0.87-1.5,1.11
		c-0.57,0.24-1.2,0.36-1.91,0.36c-0.59,0-1.14-0.11-1.67-0.33c-0.53-0.22-1-0.54-1.41-0.97c-0.41-0.42-0.73-0.93-0.97-1.53
		c-0.24-0.6-0.36-1.28-0.36-2.02c0-1.44,0.42-2.62,1.26-3.53c0.84-0.92,1.94-1.37,3.3-1.37c1.29,0,2.36,0.44,3.2,1.3
		C124.54,71.59,124.96,72.75,124.96,74.2 M123.02,74.21c0-0.47-0.05-0.96-0.14-1.48c-0.09-0.52-0.23-0.96-0.42-1.32
		c-0.2-0.39-0.46-0.7-0.79-0.93c-0.33-0.23-0.72-0.35-1.19-0.35c-0.48,0-0.89,0.12-1.23,0.36c-0.34,0.24-0.62,0.56-0.83,0.97
		c-0.2,0.38-0.34,0.81-0.42,1.3c-0.08,0.49-0.12,0.96-0.12,1.41c0,0.6,0.05,1.15,0.15,1.66c0.1,0.51,0.25,0.96,0.46,1.36
		c0.21,0.4,0.48,0.71,0.8,0.94c0.32,0.23,0.72,0.34,1.19,0.34c0.78,0,1.4-0.38,1.86-1.13C122.79,76.58,123.02,75.54,123.02,74.21"/>
	<path class="st0" d="M134.05,77.32c-0.38,0.58-0.83,1.03-1.35,1.36c-0.52,0.32-1.14,0.49-1.87,0.49c-0.43,0-0.85-0.06-1.26-0.18
		c-0.41-0.12-0.77-0.31-1.08-0.56c-0.33-0.27-0.58-0.6-0.76-0.97c-0.17-0.37-0.26-0.86-0.26-1.46l0.03-4.37
		c0-0.32-0.07-0.57-0.2-0.75c-0.13-0.18-0.38-0.27-0.72-0.27c-0.15,0-0.32,0.01-0.5,0.03c-0.18,0.02-0.32,0.04-0.4,0.04v-0.6
		c0.23-0.09,0.53-0.2,0.92-0.33c0.39-0.13,0.71-0.19,0.98-0.19c0.63,0,1.08,0.17,1.34,0.5c0.26,0.34,0.39,0.89,0.38,1.65l-0.03,3.9
		c-0.01,0.61,0.05,1.08,0.2,1.4c0.14,0.33,0.31,0.57,0.51,0.73c0.19,0.16,0.4,0.26,0.65,0.3c0.24,0.04,0.47,0.07,0.69,0.07
		c0.83,0,1.52-0.38,2.05-1.13c0.53-0.75,0.79-1.71,0.79-2.86c0-0.5-0.07-0.92-0.21-1.27c-0.14-0.35-0.37-0.65-0.7-0.92
		c-0.24-0.2-0.45-0.42-0.63-0.66c-0.17-0.24-0.26-0.52-0.26-0.84c0-0.24,0.1-0.46,0.3-0.64c0.2-0.18,0.44-0.27,0.74-0.27
		c0.36,0,0.66,0.12,0.9,0.34c0.24,0.23,0.41,0.51,0.53,0.84c0.12,0.33,0.2,0.69,0.25,1.06c0.05,0.37,0.08,0.78,0.08,1.21
		c0,0.81-0.09,1.6-0.29,2.37C134.69,76.12,134.42,76.78,134.05,77.32"/>
	<path class="st0" d="M143.05,69.69h3.69v1.14h-2.67v0.04c0.51,0.43,0.9,0.93,1.16,1.51c0.26,0.58,0.4,1.23,0.4,1.93
		c0,0.63-0.1,1.24-0.3,1.83c-0.2,0.59-0.5,1.11-0.88,1.55c-0.4,0.46-0.88,0.82-1.43,1.08c-0.56,0.26-1.21,0.4-1.97,0.4
		c-0.59,0-1.14-0.11-1.67-0.33c-0.53-0.22-1-0.54-1.41-0.97c-0.41-0.42-0.73-0.93-0.97-1.53c-0.24-0.6-0.36-1.28-0.36-2.02
		c0-0.75,0.11-1.41,0.32-2c0.21-0.58,0.52-1.1,0.92-1.55c0.39-0.42,0.87-0.76,1.44-1c0.57-0.24,1.2-0.37,1.88-0.37
		c0.35,0,0.67,0.02,0.95,0.07C142.41,69.53,142.71,69.6,143.05,69.69 M143.08,77.22c0.22-0.42,0.38-0.86,0.47-1.34
		c0.1-0.47,0.14-1.02,0.14-1.63c0-0.48-0.04-0.98-0.14-1.5c-0.09-0.52-0.23-0.95-0.41-1.29c-0.21-0.38-0.46-0.68-0.78-0.89
		c-0.31-0.21-0.72-0.32-1.22-0.32c-0.5,0-0.92,0.12-1.26,0.36c-0.33,0.24-0.6,0.55-0.8,0.93c-0.19,0.35-0.32,0.75-0.41,1.22
		c-0.09,0.47-0.13,0.95-0.13,1.46c0,0.55,0.05,1.08,0.14,1.6c0.1,0.52,0.25,0.98,0.46,1.38c0.21,0.4,0.48,0.71,0.8,0.94
		c0.32,0.23,0.72,0.34,1.19,0.34c0.43,0,0.81-0.11,1.13-0.34C142.62,77.9,142.88,77.6,143.08,77.22"/>
	<path class="st0" d="M155.38,70.83h-3.17v4.95c0,0.39,0.01,0.71,0.02,0.97c0.01,0.26,0.07,0.49,0.16,0.67
		c0.09,0.19,0.22,0.33,0.39,0.42c0.17,0.09,0.44,0.14,0.8,0.14c0.17,0,0.39-0.02,0.65-0.05c0.27-0.03,0.46-0.07,0.58-0.12v0.68
		c-0.41,0.17-0.77,0.31-1.1,0.42c-0.33,0.12-0.76,0.17-1.28,0.17c-0.73,0-1.24-0.19-1.53-0.58c-0.29-0.39-0.44-0.94-0.44-1.66v-6.03
		h-0.84c-0.33,0-0.6,0.06-0.79,0.17c-0.2,0.11-0.37,0.26-0.5,0.43c-0.11,0.15-0.19,0.34-0.25,0.56c-0.06,0.21-0.1,0.46-0.13,0.73
		h-0.59c-0.01-0.14-0.03-0.32-0.04-0.53c-0.02-0.21-0.02-0.4-0.02-0.57c0-0.22,0.04-0.44,0.12-0.66c0.08-0.22,0.22-0.43,0.4-0.63
		c0.17-0.19,0.39-0.34,0.66-0.46c0.27-0.12,0.58-0.18,0.94-0.18h5.96V70.83z"/>
	<path class="st0" d="M161.17,78.74c-0.29,0.1-0.58,0.18-0.86,0.25c-0.28,0.07-0.64,0.1-1.07,0.1c-0.58,0-1.01-0.17-1.32-0.52
		c-0.3-0.35-0.45-0.85-0.45-1.5l0.02-5.46c0-0.21-0.04-0.39-0.13-0.55c-0.08-0.16-0.2-0.3-0.36-0.41c-0.12-0.07-0.29-0.14-0.51-0.18
		c-0.23-0.05-0.43-0.07-0.62-0.09v-0.61l3.23-0.2l0.13,0.13v7.25c0,0.4,0.12,0.7,0.36,0.91c0.24,0.21,0.57,0.31,0.98,0.31
		c0.09,0,0.19,0,0.3-0.01c0.11-0.01,0.21-0.01,0.31-0.02V78.74z"/>
	<path class="st0" d="M171.68,78.62c-0.36,0.14-0.71,0.25-1.05,0.33c-0.34,0.08-0.67,0.12-0.99,0.12c-0.21,0-0.39-0.01-0.55-0.02
		c-0.16-0.01-0.33-0.08-0.5-0.17c-0.16-0.08-0.33-0.23-0.5-0.42c-0.17-0.19-0.34-0.45-0.53-0.78c-0.3-0.54-0.61-1.12-0.94-1.75
		c-0.33-0.63-0.61-1.16-0.86-1.62l-0.92,1.03v3.55h-1.74v-7.26c0-0.21-0.05-0.4-0.14-0.58c-0.09-0.18-0.22-0.32-0.38-0.43
		c-0.12-0.07-0.26-0.13-0.42-0.16c-0.16-0.04-0.34-0.06-0.52-0.07v-0.62l3.07-0.21l0.13,0.13v4.73c0.5-0.62,1.03-1.28,1.58-1.97
		c0.56-0.69,1.07-1.29,1.55-1.82c0.38-0.42,0.7-0.71,0.95-0.87c0.25-0.15,0.53-0.23,0.84-0.23c0.34,0,0.62,0.11,0.82,0.32
		c0.21,0.21,0.31,0.49,0.31,0.85c0,0.26-0.1,0.49-0.3,0.7c-0.2,0.2-0.45,0.3-0.77,0.3c-0.18,0-0.39-0.04-0.65-0.12
		c-0.26-0.08-0.49-0.17-0.7-0.27c-0.26,0.18-0.51,0.41-0.74,0.7c-0.23,0.29-0.51,0.6-0.83,0.96c0.45,0.83,0.85,1.55,1.18,2.15
		c0.33,0.6,0.65,1.15,0.95,1.62c0.29,0.45,0.58,0.79,0.87,1.01c0.29,0.22,0.59,0.33,0.91,0.33c0.12,0,0.28-0.01,0.47-0.03
		c0.19-0.02,0.31-0.03,0.38-0.05V78.62z"/>
	<path class="st0" d="M182.98,78.72c-0.32,0.11-0.65,0.2-1,0.27c-0.35,0.07-0.62,0.1-0.82,0.1c-0.52,0-0.92-0.15-1.19-0.45
		c-0.27-0.3-0.45-0.84-0.56-1.62c-0.16,0.27-0.36,0.55-0.59,0.83c-0.23,0.29-0.48,0.51-0.73,0.69c-0.29,0.21-0.59,0.37-0.89,0.47
		c-0.3,0.11-0.66,0.16-1.08,0.16c-0.52,0-1.02-0.11-1.49-0.34c-0.48-0.23-0.9-0.56-1.27-0.99c-0.37-0.43-0.66-0.95-0.87-1.55
		c-0.21-0.61-0.32-1.27-0.32-2c0-0.67,0.11-1.3,0.34-1.9c0.23-0.6,0.54-1.12,0.95-1.58c0.38-0.43,0.84-0.77,1.38-1.01
		c0.53-0.24,1.09-0.37,1.66-0.37c0.74,0,1.37,0.18,1.89,0.54c0.52,0.36,0.9,0.86,1.14,1.5l0.23-1.79h1.74
		c-0.04,0.44-0.14,1.11-0.29,1.98c-0.15,0.88-0.32,1.84-0.51,2.88c0.02,0.92,0.12,1.68,0.31,2.29c0.19,0.61,0.44,1.01,0.74,1.18
		c0.09,0.05,0.27,0.09,0.53,0.09c0.26,0.01,0.5,0.01,0.71,0.01V78.72z M179.23,74.01c-0.04-0.45-0.12-0.92-0.22-1.39
		c-0.1-0.47-0.25-0.88-0.45-1.25c-0.19-0.37-0.45-0.67-0.75-0.9c-0.31-0.23-0.69-0.34-1.14-0.34c-0.74,0-1.35,0.38-1.83,1.13
		c-0.48,0.76-0.72,1.8-0.72,3.12c0,0.51,0.05,0.98,0.16,1.44c0.11,0.45,0.26,0.85,0.45,1.17c0.21,0.35,0.47,0.63,0.81,0.85
		c0.33,0.21,0.73,0.32,1.19,0.32c0.76,0,1.35-0.34,1.78-1.02C178.93,76.47,179.17,75.42,179.23,74.01 M178.12,64.52
		c-0.14,0.37-0.3,0.89-0.5,1.53c-0.2,0.64-0.38,1.38-0.55,2.2h-0.55c-0.17-0.83-0.36-1.58-0.56-2.25c-0.21-0.66-0.37-1.16-0.49-1.48
		v-0.18h2.65V64.52z"/>
	<path class="st0" d="M196.47,71.46c0.39,0.36,0.69,0.78,0.89,1.29c0.2,0.5,0.3,1.05,0.3,1.66c0,1.33-0.42,2.45-1.25,3.36
		c-0.83,0.91-1.89,1.36-3.17,1.36c-0.54,0-1-0.07-1.37-0.2c-0.37-0.13-0.66-0.27-0.88-0.43h-0.07v4.55h-1.76V69.51
		c0-0.93,0.07-1.67,0.21-2.23c0.14-0.55,0.47-1.1,1-1.65c0.34-0.37,0.78-0.67,1.3-0.89c0.52-0.22,1.11-0.33,1.77-0.33
		c0.49,0,0.95,0.06,1.38,0.18c0.43,0.12,0.83,0.3,1.17,0.56c0.34,0.25,0.61,0.56,0.8,0.94c0.19,0.38,0.29,0.84,0.29,1.38
		c0,0.5-0.09,0.93-0.28,1.3c-0.19,0.37-0.41,0.67-0.68,0.89c-0.26,0.23-0.56,0.41-0.89,0.55c-0.33,0.14-0.63,0.22-0.9,0.25
		l0.04,0.08c0.29,0.02,0.63,0.11,1.02,0.26C195.79,70.95,196.15,71.18,196.47,71.46 M195.71,74.44c0-0.43-0.04-0.88-0.11-1.32
		c-0.07-0.44-0.2-0.81-0.37-1.1c-0.19-0.3-0.44-0.54-0.76-0.72c-0.32-0.17-0.73-0.26-1.24-0.26h-0.88v-0.9h0.64
		c0.27,0,0.56-0.05,0.85-0.14c0.3-0.1,0.55-0.24,0.76-0.45c0.24-0.22,0.43-0.49,0.57-0.79c0.14-0.3,0.21-0.72,0.21-1.23
		c0-0.77-0.19-1.37-0.56-1.79c-0.37-0.42-0.86-0.63-1.47-0.63c-0.36,0-0.68,0.06-0.96,0.18c-0.28,0.12-0.53,0.34-0.77,0.65
		c-0.22,0.3-0.39,0.7-0.52,1.22c-0.13,0.52-0.19,1.13-0.19,1.83v7.95c0.13,0.4,0.39,0.75,0.79,1.05c0.4,0.3,0.86,0.45,1.37,0.45
		c0.8,0,1.43-0.36,1.91-1.07C195.47,76.66,195.71,75.68,195.71,74.44"/>
	<path class="st0" d="M209.87,78.72c-0.32,0.11-0.65,0.2-1,0.27c-0.35,0.07-0.62,0.1-0.82,0.1c-0.52,0-0.92-0.15-1.19-0.45
		c-0.27-0.3-0.45-0.84-0.56-1.62c-0.16,0.27-0.36,0.55-0.59,0.83c-0.23,0.28-0.48,0.51-0.73,0.69c-0.29,0.21-0.59,0.36-0.89,0.47
		c-0.3,0.11-0.66,0.16-1.08,0.16c-0.52,0-1.02-0.11-1.49-0.34c-0.48-0.23-0.9-0.56-1.27-0.99c-0.37-0.43-0.66-0.95-0.87-1.55
		c-0.21-0.61-0.32-1.28-0.32-2.01c0-0.67,0.11-1.3,0.34-1.9c0.23-0.6,0.54-1.13,0.95-1.58c0.38-0.43,0.84-0.77,1.38-1.01
		c0.53-0.24,1.08-0.37,1.66-0.37c0.74,0,1.37,0.18,1.89,0.54c0.52,0.36,0.9,0.86,1.14,1.5l0.23-1.79h1.74
		c-0.04,0.44-0.14,1.1-0.29,1.98c-0.15,0.88-0.32,1.84-0.51,2.88c0.02,0.92,0.12,1.68,0.31,2.29c0.19,0.61,0.44,1.01,0.74,1.18
		c0.09,0.06,0.27,0.09,0.53,0.09c0.26,0.01,0.5,0.01,0.71,0.01V78.72z M206.12,74.01c-0.04-0.46-0.12-0.92-0.22-1.39
		c-0.1-0.47-0.25-0.88-0.45-1.25c-0.19-0.37-0.45-0.67-0.75-0.9c-0.31-0.23-0.69-0.34-1.14-0.34c-0.74,0-1.35,0.38-1.83,1.13
		c-0.48,0.75-0.72,1.8-0.72,3.12c0,0.51,0.05,0.98,0.16,1.44c0.11,0.45,0.26,0.84,0.45,1.17c0.21,0.35,0.47,0.63,0.81,0.85
		c0.33,0.22,0.73,0.32,1.19,0.32c0.76,0,1.35-0.34,1.78-1.03C205.82,76.47,206.06,75.42,206.12,74.01"/>
	<path class="st0" d="M218.62,70.66c0.38,0.41,0.67,0.9,0.88,1.47c0.21,0.57,0.31,1.25,0.31,2.04c0,0.7-0.12,1.36-0.36,1.98
		c-0.24,0.62-0.56,1.16-0.97,1.6c-0.41,0.44-0.87,0.78-1.38,1.02c-0.51,0.24-1.05,0.36-1.63,0.36c-0.54,0-1-0.07-1.38-0.2
		c-0.38-0.13-0.69-0.27-0.9-0.43h-0.08v4.54h-1.76v-9.26c0-0.71,0.08-1.29,0.23-1.76c0.15-0.47,0.45-0.94,0.87-1.4
		c0.37-0.4,0.82-0.7,1.34-0.9c0.53-0.2,1.14-0.3,1.85-0.3c0.6,0,1.15,0.1,1.66,0.31C217.81,69.95,218.25,70.26,218.62,70.66
		 M217.88,74.16c0-0.89-0.08-1.6-0.23-2.12c-0.15-0.52-0.35-0.93-0.59-1.21c-0.24-0.28-0.49-0.46-0.77-0.55
		c-0.28-0.09-0.55-0.13-0.81-0.13c-0.3,0-0.57,0.04-0.83,0.13c-0.25,0.09-0.48,0.23-0.68,0.44c-0.29,0.29-0.49,0.63-0.62,1.03
		c-0.13,0.4-0.2,0.98-0.22,1.75c-0.01,0.34-0.01,0.65-0.02,0.91c-0.01,0.26-0.01,0.52-0.01,0.78c0,0.34,0,0.64,0.01,0.9
		c0.01,0.26,0.01,0.55,0.01,0.87c0.12,0.38,0.38,0.73,0.79,1.04c0.41,0.32,0.89,0.47,1.43,0.47c0.73,0,1.33-0.38,1.81-1.14
		C217.64,76.56,217.88,75.5,217.88,74.16"/>
	<path class="st0" d="M229.88,83.05h-1.76V72.59c0-0.66-0.16-1.17-0.48-1.52c-0.32-0.35-0.72-0.53-1.18-0.53
		c-0.29,0-0.56,0.05-0.83,0.14c-0.26,0.09-0.51,0.23-0.75,0.4c-0.2,0.14-0.36,0.29-0.48,0.44c-0.12,0.16-0.22,0.3-0.29,0.41v6.97
		h-1.74v-7.26c0-0.21-0.04-0.4-0.13-0.58c-0.08-0.17-0.21-0.32-0.39-0.44c-0.11-0.08-0.25-0.13-0.42-0.16
		c-0.16-0.03-0.34-0.06-0.53-0.07v-0.62l3.07-0.2l0.13,0.13V71h0.05c0.14-0.15,0.33-0.33,0.56-0.54c0.23-0.21,0.45-0.38,0.65-0.51
		c0.23-0.15,0.5-0.27,0.82-0.37c0.31-0.1,0.66-0.15,1.04-0.15c0.88,0,1.55,0.28,1.99,0.83c0.44,0.55,0.66,1.29,0.66,2.2V83.05z"/>
	<path class="st0" d="M241.89,78.62c-0.36,0.14-0.71,0.25-1.05,0.33c-0.34,0.08-0.67,0.12-0.99,0.12c-0.21,0-0.39-0.01-0.55-0.02
		c-0.16-0.01-0.33-0.08-0.5-0.17c-0.16-0.08-0.33-0.23-0.5-0.42c-0.17-0.19-0.34-0.45-0.53-0.78c-0.3-0.54-0.61-1.12-0.94-1.75
		c-0.33-0.63-0.61-1.16-0.86-1.62l-0.92,1.03v3.55h-1.74v-7.26c0-0.21-0.05-0.4-0.14-0.58c-0.09-0.18-0.22-0.32-0.38-0.43
		c-0.12-0.07-0.26-0.13-0.42-0.16c-0.16-0.04-0.34-0.06-0.52-0.07v-0.62l3.07-0.21l0.13,0.13v4.73c0.5-0.62,1.03-1.28,1.58-1.97
		c0.56-0.69,1.07-1.29,1.55-1.82c0.38-0.42,0.7-0.71,0.95-0.87c0.25-0.15,0.53-0.23,0.84-0.23c0.34,0,0.62,0.11,0.82,0.32
		c0.21,0.21,0.31,0.49,0.31,0.85c0,0.26-0.1,0.49-0.3,0.7c-0.2,0.2-0.45,0.3-0.77,0.3c-0.18,0-0.39-0.04-0.65-0.12
		c-0.26-0.08-0.49-0.17-0.7-0.27c-0.26,0.18-0.51,0.41-0.74,0.7c-0.23,0.29-0.51,0.6-0.83,0.96c0.45,0.83,0.85,1.55,1.18,2.15
		c0.33,0.6,0.65,1.15,0.95,1.62c0.29,0.45,0.58,0.79,0.87,1.01c0.29,0.22,0.59,0.33,0.91,0.33c0.12,0,0.28-0.01,0.47-0.03
		c0.19-0.02,0.31-0.03,0.38-0.05V78.62z"/>
	<path class="st0" d="M251.37,74.2c0,0.65-0.1,1.28-0.31,1.91c-0.21,0.63-0.5,1.16-0.88,1.59c-0.43,0.5-0.93,0.87-1.5,1.11
		c-0.57,0.24-1.2,0.36-1.91,0.36c-0.59,0-1.14-0.11-1.67-0.33c-0.53-0.22-1-0.54-1.41-0.97c-0.41-0.42-0.73-0.93-0.97-1.53
		c-0.24-0.6-0.36-1.28-0.36-2.02c0-1.44,0.42-2.62,1.26-3.53c0.84-0.92,1.94-1.37,3.3-1.37c1.29,0,2.36,0.44,3.2,1.3
		C250.95,71.59,251.37,72.75,251.37,74.2 M249.43,74.21c0-0.47-0.05-0.96-0.14-1.48c-0.09-0.52-0.23-0.96-0.42-1.32
		c-0.2-0.39-0.46-0.7-0.79-0.93c-0.33-0.23-0.72-0.35-1.19-0.35c-0.48,0-0.89,0.12-1.23,0.36c-0.34,0.24-0.62,0.56-0.83,0.97
		c-0.2,0.38-0.34,0.81-0.42,1.3c-0.08,0.49-0.12,0.96-0.12,1.41c0,0.6,0.05,1.15,0.15,1.66c0.1,0.51,0.25,0.96,0.46,1.36
		c0.21,0.4,0.48,0.71,0.8,0.94c0.32,0.23,0.72,0.34,1.19,0.34c0.78,0,1.4-0.38,1.86-1.13C249.2,76.58,249.43,75.54,249.43,74.21"/>
	<path class="st0" d="M253.17,66.24c0,0.32-0.1,0.59-0.31,0.82c-0.21,0.23-0.47,0.34-0.77,0.34c-0.3,0-0.56-0.11-0.77-0.34
		c-0.21-0.22-0.31-0.5-0.31-0.82c0-0.32,0.1-0.59,0.31-0.81c0.21-0.22,0.47-0.34,0.77-0.34c0.3,0,0.56,0.11,0.77,0.34
		C253.07,65.65,253.17,65.92,253.17,66.24 M257.62,78.74c-0.29,0.1-0.58,0.18-0.86,0.25c-0.28,0.07-0.64,0.1-1.07,0.1
		c-0.58,0-1.01-0.17-1.32-0.52c-0.3-0.35-0.45-0.85-0.45-1.5l0.02-5.46c0-0.21-0.04-0.39-0.13-0.55c-0.08-0.16-0.2-0.3-0.36-0.41
		c-0.12-0.07-0.29-0.14-0.52-0.18c-0.22-0.05-0.43-0.07-0.62-0.09v-0.61l3.23-0.2l0.13,0.13v7.25c0,0.4,0.12,0.7,0.36,0.91
		c0.24,0.21,0.57,0.31,0.98,0.31c0.09,0,0.19,0,0.3-0.01c0.11-0.01,0.21-0.01,0.31-0.02V78.74z M255.79,63.86
		c-0.15,0.42-0.3,0.91-0.45,1.49c-0.15,0.57-0.32,1.32-0.5,2.24h-0.55c-0.17-0.87-0.35-1.62-0.52-2.26
		c-0.17-0.64-0.31-1.13-0.44-1.47v-0.19h2.46V63.86z M258.13,66.24c0,0.32-0.1,0.59-0.31,0.82c-0.21,0.23-0.47,0.34-0.77,0.34
		c-0.31,0-0.56-0.11-0.77-0.34c-0.21-0.22-0.31-0.5-0.31-0.82c0-0.32,0.1-0.59,0.31-0.81c0.21-0.22,0.46-0.34,0.77-0.34
		c0.3,0,0.56,0.11,0.77,0.34C258.02,65.65,258.13,65.92,258.13,66.24"/>
	<path class="st0" d="M269.17,78.72c-0.32,0.11-0.65,0.2-1,0.27c-0.35,0.07-0.62,0.1-0.82,0.1c-0.52,0-0.92-0.15-1.19-0.45
		c-0.27-0.3-0.45-0.84-0.56-1.62c-0.16,0.27-0.36,0.55-0.59,0.83c-0.23,0.28-0.48,0.51-0.73,0.69c-0.29,0.21-0.59,0.36-0.89,0.47
		c-0.3,0.11-0.66,0.16-1.08,0.16c-0.52,0-1.02-0.11-1.49-0.34c-0.48-0.23-0.9-0.56-1.27-0.99c-0.37-0.43-0.66-0.95-0.87-1.55
		c-0.21-0.61-0.32-1.28-0.32-2.01c0-0.67,0.11-1.3,0.34-1.9c0.23-0.6,0.54-1.13,0.95-1.58c0.38-0.43,0.84-0.77,1.38-1.01
		c0.53-0.24,1.08-0.37,1.66-0.37c0.74,0,1.37,0.18,1.89,0.54c0.52,0.36,0.9,0.86,1.14,1.5l0.23-1.79h1.74
		c-0.04,0.44-0.14,1.1-0.29,1.98c-0.15,0.88-0.32,1.84-0.51,2.88c0.02,0.92,0.12,1.68,0.31,2.29c0.19,0.61,0.44,1.01,0.74,1.18
		c0.09,0.06,0.27,0.09,0.53,0.09c0.26,0.01,0.5,0.01,0.71,0.01V78.72z M265.42,74.01c-0.04-0.46-0.12-0.92-0.22-1.39
		c-0.1-0.47-0.25-0.88-0.45-1.25c-0.19-0.37-0.45-0.67-0.75-0.9c-0.31-0.23-0.69-0.34-1.14-0.34c-0.74,0-1.35,0.38-1.83,1.13
		c-0.48,0.75-0.72,1.8-0.72,3.12c0,0.51,0.05,0.98,0.16,1.44c0.11,0.45,0.26,0.84,0.45,1.17c0.21,0.35,0.47,0.63,0.81,0.85
		c0.33,0.22,0.73,0.32,1.19,0.32c0.76,0,1.35-0.34,1.78-1.03C265.11,76.47,265.36,75.42,265.42,74.01"/>
	<path class="st0" d="M277.37,79.56c0,0.87-0.34,1.62-1,2.23c-0.67,0.61-1.49,0.91-2.46,0.91c-0.68,0-1.18-0.09-1.47-0.27
		c-0.3-0.18-0.45-0.42-0.45-0.7c0-0.25,0.07-0.44,0.22-0.58c0.14-0.14,0.37-0.21,0.68-0.21c0.17,0,0.33,0.03,0.47,0.09
		c0.14,0.06,0.28,0.15,0.42,0.25c0.11,0.08,0.24,0.18,0.39,0.3c0.15,0.12,0.28,0.21,0.42,0.28c0.42-0.02,0.81-0.21,1.15-0.54
		c0.34-0.34,0.51-0.75,0.51-1.23c0-0.32-0.1-0.59-0.3-0.79c-0.2-0.2-0.48-0.34-0.82-0.42c-0.35-0.08-0.71-0.14-1.07-0.17
		c-0.37-0.03-0.8-0.13-1.31-0.29c-0.93-0.29-1.66-0.81-2.19-1.54c-0.53-0.73-0.8-1.58-0.8-2.55c0-0.84,0.13-1.57,0.4-2.18
		c0.27-0.61,0.62-1.13,1.05-1.54c0.4-0.38,0.86-0.67,1.37-0.87s1.02-0.3,1.5-0.3c0.96,0,1.74,0.2,2.35,0.6
		c0.61,0.4,0.91,0.92,0.91,1.57c0,0.3-0.07,0.56-0.21,0.8c-0.14,0.23-0.38,0.35-0.72,0.35c-0.37,0-0.65-0.09-0.85-0.27
		c-0.2-0.18-0.3-0.38-0.3-0.6c0-0.23,0.02-0.45,0.07-0.66c0.04-0.21,0.08-0.43,0.12-0.66c-0.13-0.11-0.31-0.2-0.54-0.29
		c-0.23-0.08-0.51-0.13-0.84-0.13c-0.25,0-0.52,0.06-0.82,0.18c-0.3,0.12-0.58,0.33-0.85,0.62c-0.26,0.27-0.47,0.66-0.64,1.14
		c-0.17,0.49-0.26,1.08-0.26,1.78c0,0.85,0.19,1.53,0.56,2.04c0.37,0.52,0.91,0.87,1.61,1.06c0.35,0.09,0.68,0.16,1,0.2
		c0.31,0.04,0.64,0.1,0.97,0.18c0.58,0.15,1.01,0.41,1.29,0.8C277.23,78.53,277.37,79,277.37,79.56"/>
</g>
</svg>
